<?xml version="1.0" standalone="no"?>
<!DOCTYPE svg PUBLIC "-//W3C//DTD SVG 20010904//EN"
 "http://www.w3.org/TR/2001/REC-SVG-20010904/DTD/svg10.dtd">
<svg version="1.0" xmlns="http://www.w3.org/2000/svg"
 width="300.000000pt" height="282.000000pt" viewBox="0 0 300.000000 282.000000"
 preserveAspectRatio="xMidYMid meet">

<g transform="translate(0.000000,282.000000) scale(0.100000,-0.100000)"
fill="#000000" stroke="none">
<path d="M1335 2804 c-395 -71 -703 -355 -801 -740 -79 -312 -5 -635 203 -891
l18 -22 55 19 c30 11 47 19 38 20 -11 0 -15 5 -12 15 3 8 -11 35 -34 62 -22
26 -60 86 -85 133 -226 423 -78 941 338 1188 392 232 886 126 1165 -249 70
-94 124 -219 151 -347 57 -267 -28 -580 -207 -763 l-55 -56 43 -36 c50 -42 48
-43 128 58 292 367 290 883 -5 1252 -221 277 -595 418 -940 357z"/>
<path d="M1450 2631 c-120 -24 -217 -124 -241 -246 -8 -44 6 -146 27 -186 23
-46 76 -91 143 -122 55 -26 76 -30 150 -31 54 0 108 7 146 18 l60 17 29 71
c23 57 26 72 15 79 -22 14 -27 11 -72 -35 -101 -106 -261 -69 -307 70 -17 51
-7 175 17 216 28 47 77 73 143 73 72 0 119 -27 145 -83 15 -31 25 -41 40 -39
18 2 20 9 18 86 -1 46 -5 87 -10 92 -24 24 -217 37 -303 20z"/>
<path d="M1820 1981 c-112 -37 -178 -135 -167 -252 9 -97 51 -147 155 -184
133 -47 159 -69 147 -124 -10 -46 -48 -71 -108 -71 -45 0 -54 4 -87 39 -25 26
-42 57 -50 89 -12 43 -16 48 -36 44 -21 -4 -24 -10 -24 -51 0 -25 3 -76 6
-113 7 -66 7 -67 45 -82 25 -10 54 -14 82 -10 28 4 47 2 51 -5 10 -15 33 -14
95 5 80 23 145 92 161 169 7 32 10 81 7 108 -8 83 -53 125 -184 171 -91 33
-123 58 -123 98 0 46 40 78 95 78 82 0 110 -28 140 -136 2 -7 15 -9 30 -6 24
4 26 8 21 35 -3 16 -6 60 -6 96 l0 67 -37 19 c-42 20 -171 30 -213 16z"/>
<path d="M902 1943 c2 -22 9 -29 30 -31 14 -2 32 -10 38 -17 15 -18 19 -165
10 -372 -8 -172 -14 -193 -56 -193 -19 0 -24 -5 -24 -24 0 -19 4 -23 20 -19
11 3 27 2 37 -1 9 -4 54 -8 100 -10 l83 -3 0 28 c0 22 -5 29 -20 29 -42 0 -53
41 -54 193 -1 78 1 160 4 181 l5 39 155 -236 155 -237 61 0 61 0 2 301 c1 178
6 309 12 320 5 11 21 19 34 19 21 0 25 5 25 30 l0 30 -116 0 -115 0 3 -27 c2
-20 9 -29 25 -31 12 -2 26 -9 32 -16 13 -16 22 -220 13 -297 l-7 -57 -51 77
c-125 186 -184 279 -200 314 l-18 37 -124 0 -123 0 3 -27z"/>
<path d="M1040 1240 c0 -5 5 -10 11 -10 5 0 7 5 4 10 -3 6 -8 10 -11 10 -2 0
-4 -4 -4 -10z"/>
<path d="M877 1233 c-4 -3 -7 -11 -7 -17 0 -6 5 -5 12 2 6 6 9 14 7 17 -3 3
-9 2 -12 -2z"/>
<path d="M819 1078 c-39 -40 -59 -48 -59 -23 0 30 -19 13 -58 -52 -36 -61 -92
-127 -92 -110 0 4 12 29 28 56 20 37 24 53 16 61 -8 8 -19 4 -41 -14 -16 -13
-43 -28 -59 -32 -27 -7 -28 -6 -14 12 8 10 -23 -16 -69 -59 -46 -42 -89 -77
-96 -77 -6 0 -35 -16 -65 -35 -30 -19 -62 -35 -71 -35 -17 0 -30 -9 -109 -78
-30 -25 -44 -31 -63 -26 -27 6 -67 -2 -67 -15 0 -11 226 -51 290 -51 37 0 69
-7 95 -21 22 -11 65 -27 95 -35 30 -8 64 -21 75 -28 11 -7 44 -18 73 -25 30
-6 62 -16 73 -22 28 -14 121 -22 267 -22 67 -1 122 -4 122 -9 0 -5 18 1 41 12
44 23 65 19 33 -5 -17 -13 -17 -14 -2 -15 10 0 25 8 35 19 10 10 34 26 53 35
l35 17 -37 -35 -36 -35 49 -10 c63 -14 146 -14 154 -1 3 6 -3 10 -13 10 -11 0
-30 9 -43 20 -23 19 -23 21 3 24 6 0 13 7 16 14 5 17 -23 15 -39 -4 -15 -19
-69 -48 -69 -37 0 5 7 17 15 27 8 11 13 28 10 37 -3 10 -1 20 5 24 6 3 8 11 5
16 -4 5 8 6 27 2 18 -3 66 -31 106 -61 40 -31 85 -57 100 -59 15 -2 128 -6
252 -9 201 -4 222 -3 200 10 -23 14 -12 15 120 14 125 -1 153 2 204 20 33 12
80 22 105 23 25 0 55 4 66 9 19 8 19 8 1 16 -18 7 -18 8 0 21 20 15 92 17 114
3 20 -13 9 -21 -39 -27 -38 -5 -59 -18 -48 -29 9 -9 197 25 302 56 96 28 185
64 185 74 0 2 -14 21 -31 42 -17 22 -48 73 -69 114 -21 41 -48 84 -60 95 -21
19 -22 19 -32 2 -9 -17 -12 -17 -33 -3 -14 9 -34 16 -46 16 -18 0 -21 -5 -17
-30 5 -33 12 -30 -90 -36 -42 -2 -54 1 -62 15 -5 10 -38 35 -72 56 -63 39
-101 47 -220 46 -30 0 -41 5 -58 29 -12 16 -34 31 -52 36 -18 3 -40 11 -50 17
-14 9 -22 7 -39 -12 l-22 -23 34 -27 c19 -14 58 -48 87 -76 29 -27 67 -58 85
-67 17 -10 25 -18 17 -18 -17 0 -121 62 -163 97 -16 13 -34 23 -41 23 -7 0
-41 22 -75 50 -34 27 -82 62 -107 76 l-45 27 -24 -23 -24 -23 20 -28 c14 -21
29 -29 49 -29 44 0 82 -20 69 -36 -8 -10 -5 -28 10 -69 11 -30 18 -55 15 -55
-4 0 -33 23 -65 51 -32 28 -63 47 -70 44 -6 -4 -30 11 -54 35 -54 53 -110 69
-141 39 -11 -10 -30 -19 -42 -19 -12 0 -29 -11 -38 -25 -18 -28 -14 -39 40
-86 44 -38 31 -57 -40 -58 -50 0 -61 -4 -89 -31 -17 -16 -36 -30 -43 -30 -7 0
-12 -7 -12 -15 0 -25 -20 -17 -74 31 -28 26 -63 51 -79 56 -15 6 -32 18 -37
28 -6 10 -23 28 -39 39 -24 18 -29 18 -27 5 1 -20 -44 -27 -82 -13 -33 13 -47
-7 -27 -38 19 -29 19 -33 -4 -33 -11 0 -33 11 -49 25 -17 14 -37 25 -46 25
-14 0 -16 6 -11 33 5 28 2 35 -23 54 -24 18 -36 20 -58 13 -108 -33 -173 -50
-187 -50 -12 0 -2 17 34 54 58 62 84 73 99 45 11 -20 40 -26 40 -9 0 6 -6 10
-12 10 -10 0 -9 3 1 9 7 5 11 14 7 20 -4 6 3 24 14 39 12 16 20 38 18 48 -3
16 -8 14 -39 -18z m-188 -101 c-10 -9 -11 -8 -5 6 3 10 9 15 12 12 3 -3 0 -11
-7 -18z m-61 -36 c0 -5 -9 -19 -20 -32 -21 -26 -27 -11 -10 22 11 19 30 26 30
10z m-25 -105 c-21 -26 -39 -46 -42 -46 -9 0 21 47 46 71 40 38 38 26 -4 -25z
m-145 -31 c-7 -8 -18 -15 -24 -15 -6 0 -2 7 8 15 25 19 32 19 16 0z m751 -12
c11 -29 8 -29 -22 3 -21 23 -22 26 -5 23 10 -2 22 -14 27 -26z m-589 -5 c-7
-7 -12 -8 -12 -2 0 14 12 26 19 19 2 -3 -1 -11 -7 -17z m253 -29 c-9 -17 -19
-29 -22 -26 -5 5 25 57 33 57 3 0 -3 -14 -11 -31z m325 -4 c19 -19 32 -35 29
-35 -3 0 -20 16 -39 35 -19 19 -32 35 -29 35 3 0 20 -16 39 -35z m1250 26 c0
-12 -20 -25 -27 -18 -7 7 6 27 18 27 5 0 9 -4 9 -9z m66 -23 c4 -6 -2 -7 -17
-3 -35 10 -45 23 -15 18 15 -3 29 -10 32 -15z m-1466 -11 c0 -19 -21 -37 -42
-37 -23 0 -23 26 0 39 24 14 42 13 42 -2z m-744 -15 c11 -16 8 -18 -29 -19
l-41 -1 25 19 c30 23 32 23 45 1z m770 -11 c-9 -10 -14 -25 -11 -34 4 -8 1
-18 -6 -23 -9 -5 -10 -2 -5 12 6 15 5 17 -5 7 -7 -7 -17 -13 -21 -13 -15 0 -8
21 17 45 28 29 57 35 31 6z m340 -33 l19 -21 -27 18 c-29 18 -34 25 -20 25 5
0 17 -10 28 -22z m-1116 8 c0 -3 -4 -8 -10 -11 -5 -3 -10 -1 -10 4 0 6 5 11
10 11 6 0 10 -2 10 -4z m970 -14 c0 -4 14 -16 31 -26 44 -26 28 -31 -20 -6
-41 21 -54 40 -26 40 8 0 15 -4 15 -8z m37 -80 c14 -19 19 -33 12 -37 -11 -8
-39 12 -39 28 0 6 -12 24 -27 40 l-28 29 30 -15 c17 -8 40 -29 52 -45z m256
-38 l29 -49 -27 25 c-33 31 -63 84 -44 78 8 -3 26 -27 42 -54z m-180 26 c5 -4
-3 -7 -17 -7 -14 0 -31 6 -38 14 -10 12 -7 13 18 7 16 -3 33 -10 37 -14z m-80
-37 c4 -3 -3 -18 -15 -32 l-23 -25 37 22 c23 13 35 16 32 8 -6 -17 -52 -38
-65 -30 -6 3 -17 0 -25 -7 -8 -6 -17 -9 -21 -6 -3 4 6 16 20 28 15 11 27 27
27 35 0 14 21 19 33 7z m-139 -38 c-10 -8 -23 -14 -29 -14 -5 -1 1 8 15 19 14
10 27 17 29 14 3 -2 -4 -11 -15 -19z"/>
<path d="M1210 991 c0 -5 7 -12 16 -15 14 -5 15 -4 4 9 -14 17 -20 19 -20 6z"/>
<path d="M105 754 c-22 -9 -55 -20 -72 -26 -21 -7 -33 -18 -33 -30 0 -26 21
-22 67 11 21 15 52 36 69 44 37 20 21 21 -31 1z"/>
<path d="M14 448 c24 -34 23 -290 0 -309 -15 -12 -14 -14 7 -20 13 -4 34 -7
47 -8 21 -1 22 0 8 15 -11 10 -16 34 -16 75 0 50 3 59 18 59 29 0 38 -12 72
-92 30 -74 33 -78 63 -78 23 0 28 3 18 9 -8 5 -31 44 -51 87 l-37 77 26 23
c21 18 26 31 26 67 0 72 -30 93 -153 111 -43 6 -43 6 -28 -16z m124 -31 c7 -8
15 -30 19 -50 8 -52 -16 -87 -62 -87 l-35 0 0 81 0 82 32 -7 c18 -4 39 -12 46
-19z"/>
<path d="M2925 459 c-27 -5 -65 -11 -82 -14 -31 -6 -33 -9 -33 -46 0 -43 22
-52 28 -11 2 11 9 25 15 30 13 10 97 27 97 19 0 -2 -27 -69 -61 -148 -34 -79
-65 -155 -70 -168 -17 -42 -35 -6 -76 154 -28 105 -44 151 -55 153 -11 2 -25
-32 -58 -149 -24 -84 -52 -168 -61 -187 l-18 -34 31 6 c17 3 35 6 40 6 6 0 5
6 -2 15 -12 14 -6 90 8 99 4 2 27 6 52 7 44 4 44 4 53 -34 8 -31 6 -42 -8 -57
-23 -25 -24 -25 139 0 71 11 130 20 132 20 2 0 4 20 4 45 0 51 -15 60 -25 16
-3 -16 -12 -34 -18 -39 -13 -10 -97 -25 -97 -17 0 3 30 76 66 163 36 86 68
163 71 170 6 13 -1 14 -72 1z m-222 -168 c9 -36 14 -69 11 -73 -3 -4 -22 -8
-43 -8 l-39 0 22 80 c11 43 23 76 27 72 3 -4 13 -36 22 -71z"/>
<path d="M259 412 c14 -26 15 -298 1 -307 -24 -15 -5 -23 63 -30 39 -3 79 -9
88 -11 13 -4 18 4 21 36 5 51 -9 62 -23 21 -9 -26 -16 -31 -44 -31 -61 0 -65
5 -65 80 0 38 4 71 10 75 17 10 59 -6 65 -26 11 -34 25 -20 25 24 0 53 -7 62
-29 36 -13 -16 -23 -19 -44 -14 -26 7 -27 10 -27 69 0 35 2 65 4 67 3 3 24 3
47 1 35 -4 43 -9 53 -33 14 -39 26 -37 26 5 0 39 -4 40 -114 52 -67 6 -68 6
-57 -14z"/>
<path d="M1513 413 c9 -2 23 -2 30 0 6 3 -1 5 -18 5 -16 0 -22 -2 -12 -5z"/>
<path d="M521 384 c-35 -25 -51 -75 -51 -159 0 -131 34 -178 130 -180 l60 -1
0 62 c0 35 5 66 10 69 19 11 -1 25 -35 25 l-33 0 15 -31 c37 -73 -19 -141 -73
-87 -46 46 -52 208 -10 272 27 42 88 30 100 -19 9 -37 26 -31 26 9 0 41 -5 45
-67 52 -36 4 -54 1 -72 -12z"/>
<path d="M2396 391 c-18 -7 -18 -8 -3 -14 15 -6 17 -25 17 -156 0 -89 -4 -152
-10 -156 -21 -13 -8 -20 30 -17 38 4 39 5 25 25 -9 12 -15 44 -15 74 0 50 1
53 25 53 64 0 115 55 115 125 0 55 -27 75 -102 74 -35 0 -72 -4 -82 -8z m128
-27 c9 -9 16 -32 16 -55 0 -47 -35 -89 -75 -89 -25 0 -25 1 -25 73 0 41 3 77
7 80 12 13 62 7 77 -9z"/>
<path d="M720 361 c13 -25 13 -298 0 -306 -22 -14 -8 -25 31 -25 39 0 40 0 25
22 -13 18 -16 51 -16 153 0 102 3 135 16 153 15 22 15 22 -26 22 -37 0 -40 -2
-30 -19z"/>
<path d="M2167 373 c-2 -5 -24 -73 -47 -153 -23 -80 -49 -156 -56 -170 -13
-24 -13 -23 -14 23 0 57 -13 61 -28 8 -12 -39 -30 -51 -79 -51 -23 0 -23 1
-23 146 0 81 5 154 10 165 10 17 7 19 -29 19 l-40 0 15 -27 c20 -40 20 -257
-1 -297 l-15 -29 97 6 c54 4 116 7 137 7 38 0 39 1 22 19 -15 16 -16 25 -7 59
11 38 13 40 57 44 35 2 48 -1 55 -14 13 -24 11 -72 -3 -86 -9 -9 -3 -12 28
-12 50 0 57 6 39 34 -8 11 -30 87 -51 169 -24 96 -41 147 -50 147 -7 0 -15 -3
-17 -7z m39 -175 l7 -38 -42 0 c-24 0 -41 5 -41 11 0 7 10 44 22 83 l21 71 14
-45 c7 -25 16 -62 19 -82z"/>
<path d="M865 346 c-60 -60 -60 -242 0 -302 33 -33 103 -34 132 -1 36 38 44
66 45 141 2 127 -35 186 -114 186 -28 0 -46 -7 -63 -24z m119 -40 c40 -81 19
-255 -31 -268 -60 -16 -88 39 -88 167 0 112 17 148 68 143 26 -2 36 -10 51
-42z"/>
<path d="M1088 349 c15 -16 18 -319 2 -319 -5 0 -10 -4 -10 -10 0 -5 16 -10
36 -10 34 0 35 1 20 22 -12 17 -16 50 -16 147 0 68 3 122 6 118 3 -3 36 -70
73 -148 37 -78 72 -144 79 -147 9 -3 12 36 12 160 0 114 4 168 12 176 9 9 5
12 -20 12 -29 0 -32 -2 -22 -19 11 -21 14 -239 3 -228 -3 4 -32 62 -64 129
-56 117 -60 123 -91 126 -27 3 -31 1 -20 -9z"/>
<path d="M1435 348 c-2 -7 -25 -80 -51 -163 -25 -82 -53 -158 -61 -167 -15
-17 -13 -18 32 -18 47 0 48 1 31 19 -15 16 -16 25 -6 60 11 41 11 41 59 41 42
0 49 -3 55 -23 9 -36 7 -72 -6 -85 -9 -9 -2 -12 35 -12 42 0 64 13 37 22 -6 2
-30 77 -53 167 -38 150 -59 195 -72 159z m29 -121 c9 -38 16 -72 16 -78 0 -5
-18 -9 -40 -9 -23 0 -40 5 -40 11 0 18 41 151 45 147 2 -2 11 -34 19 -71z"/>
<path d="M1594 328 c23 -33 23 -274 0 -306 l-16 -23 94 3 93 3 3 52 c3 56 -11
72 -21 26 -10 -45 -22 -55 -63 -57 l-39 -1 -3 149 c-2 101 1 153 9 162 9 12 4
14 -30 14 -42 0 -42 0 -27 -22z"/>
</g>
</svg>
